PathFileType	4	(X/Y/Z)	Patient4_TMGait_0pt5_01_left_02.trc.trc
DataRate	CameraRate	NumFrames	NumMarkers	Units	OrigDataRate	OrigDataStartFrame	OrigNumFrames
76.502732240437	76.502732240437	4	33	mm	76.502732240437	71	       141
Frame#	Time	L.ASIS			Sacral			L.Shoulder			Chest			R.Shoulder			Neck			R.ASIS			R.Thigh.Superior			R.Thigh.Lateral			R.Thigh.Inferior			R.Patella			L.Thigh.Superior			L.Thigh.Lateral			L.Thigh.Inferior			L.Patella			L.Shank.Superior			L.Shank.Lateral			L.Shank.Inferior			R.Shank.Superior			R.Shank.Lateral			R.Shank.Inferior			R.Heel			R.Midfoot.Superior			R.Midfoot.Lateral			R.Toe			L.Heel			L.Midfoot.Lateral			L.Midfoot.Superior			L.Toe			L.Elbow			L.Wrist			R.Elbow			R.Wrist			
		X1	Y1	Z1	X2	Y2	Z2	X3	Y3	Z3	X4	Y4	Z4	X5	Y5	Z5	X6	Y6	Z6	X7	Y7	Z7	X8	Y8	Z8	X9	Y9	Z9	X10	Y10	Z10	X11	Y11	Z11	X12	Y12	Z12	X13	Y13	Z13	X14	Y14	Z14	X15	Y15	Z15	X16	Y16	Z16	X17	Y17	Z17	X18	Y18	Z18	X19	Y19	Z19	X20	Y20	Z20	X21	Y21	Z21	X22	Y22	Z22	X23	Y23	Z23	X24	Y24	Z24	X25	Y25	Z25	X26	Y26	Z26	X27	Y27	Z27	X28	Y28	Z28	X29	Y29	Z29	X30	Y30	Z30	X31	Y31	Z31	X32	Y32	Z32	X33	Y33	Z33	

71	3.455000000000	785.079082676593	957.458880433917	310.995477139457	554.876894775727	1007.442411812873	440.966443647646	761.979552280323	1435.760392886851	282.867692470491	837.119766950905	1363.115154891310	457.635503843840	728.144578813590	1437.786570478183	617.401107743710	741.402898920195	1495.880909456516	431.948783050031	769.351422274320	944.728000465201	585.407162437282	840.723414665278	765.140232782053	562.111919851472	787.751557358958	647.818070228830	632.337008104371	875.045431355896	604.429070459168	553.967680268632	905.388203433476	521.972010115817	570.877441147637	794.033463964855	732.188365352783	346.311904954260	690.368741620209	632.919885044957	275.795270074745	745.200933207570	543.940405241827	350.085399040331	730.270291175622	476.978246187910	360.914055253395	701.050672671844	408.989804848073	350.391673210530	607.995433654931	301.137501723943	294.564743536785	639.825617659960	188.675805615018	372.344534449789	888.990858692612	434.447961795033	580.728340535847	835.958675357069	322.085341441283	645.746476310889	903.068063685736	234.583224797539	593.782104506059	807.800813012625	45.964635355861	568.172892647028	968.017295257182	124.252624302676	605.185400972622	892.957279508281	46.358630240021	641.445345527398	1094.345351554376	91.996956444706	632.453556303809	498.326617734754	38.332147001381	407.247677045064	575.358284127453	35.234732877349	329.624549101237	658.342348174949	95.166354438965	360.102617482512	787.143746084993	41.344248037408	336.272984262040	806.429535829513	1099.316083925410	135.257925183511	1053.119207449633	1033.549760839568	167.075622038712	566.871106333757	1129.730148767364	707.638779521947	515.405629710728	874.978472816357	722.422863290083	
72	3.468071428571	786.548803550824	956.544171160395	313.183640843621	555.954724668085	1006.061916000104	442.544867889917	762.009550056471	1434.740077874320	284.910057977008	836.983591201437	1362.449070898621	459.882134528956	727.479317169116	1436.890906377475	619.326561562651	740.950612416010	1494.879842159236	433.896063861957	770.057867791889	943.405327739222	587.591889213759	840.234935444599	762.637322002756	564.705347406100	785.219072534323	645.199188414544	633.559441044277	872.774982196266	601.913842464090	555.674486153014	902.061008800295	520.258828608786	571.454002660129	793.177701366129	730.615101492771	347.981508861146	688.329609919226	632.459365101817	276.896478127220	741.891849021886	542.844318151359	351.062191020736	726.275726112516	476.005579650965	361.699019890164	696.622247730793	408.278609294113	351.050371883250	602.871007246152	301.121545193841	294.973058688957	633.864017836590	188.318025665941	372.585034991602	887.321439261347	432.519541600993	581.203815150902	835.681611317150	319.017267250854	645.260008053305	904.646259595087	232.883506799919	593.259185415366	812.386104830077	43.477687135740	566.735348206496	971.769171143054	123.338905048801	604.236074257908	897.420759607602	44.715036168722	640.108289551516	1098.312793250390	92.238454164834	631.305984090903	491.729188579479	38.294427860027	407.250069030212	568.755608740534	35.197167451993	329.664597023207	651.734072179683	95.134067274223	360.170938725992	780.523583143973	41.276370317232	336.307339037214	808.571882801287	1098.428894651047	137.918568692913	1056.071294701681	1036.830943637177	170.529474654159	566.296388047708	1128.641408936509	708.536931189743	516.118198092254	873.438595292422	722.289284123125	
73	3.481142857143	788.094952779246	955.551470595081	315.432035032083	557.240794892120	1004.507898822929	444.414203838171	761.924324959321	1433.617298538503	287.111046674991	836.881130050551	1361.717465349769	462.243340373212	726.895719292665	1435.843321974633	621.446069498210	740.458044698877	1493.764685391494	436.022027548698	771.045347964043	941.952973967455	589.836754664406	840.366201528739	760.281685713530	567.218370686499	783.303024030260	642.595899066354	634.521087471764	871.305008997233	599.590703741816	557.281063866486	899.308320140649	518.333792877817	571.941011663693	792.569039632250	728.999268226324	349.608454335113	686.481162592442	631.915184493060	278.141039132798	738.934389866336	541.672505968591	352.100157148152	722.662785730508	474.870558917589	362.587989610925	692.484073110040	407.439092043273	351.807493183184	597.899535110526	301.096193819606	295.454424227067	627.988433936326	187.900305512447	372.844610334513	885.689326318756	430.256792691548	581.559511570018	834.522449477889	316.052333980936	644.540865398944	904.651030129949	230.831552640243	592.580238597177	813.830108723311	41.804558911251	565.135256109773	973.059588806251	121.638976745799	603.146518199422	898.649718785052	43.223548936636	638.684793793049	1099.392133372633	90.516049454502	630.107584468265	485.118195355729	38.214709774414	407.247668739959	562.151343315865	35.138431302838	329.707831139966	645.119892416528	95.096975494016	360.239932769194	773.911501252762	41.195223156244	336.330630506957	810.388576537599	1097.389274113421	140.706817163001	1058.494900235177	1039.304148922213	174.123014962830	566.486953807361	1126.991418901456	709.776163739530	518.382289848845	871.188709482179	722.431973779020	
74	3.494214285714	789.658471032964	954.484048108841	317.713572603991	558.710207795413	1002.807293691496	446.561444705330	761.737194296354	1432.414303630037	289.474424693687	836.824679610092	1360.925040879250	464.715810052798	726.411982873556	1434.653393655807	623.766721145981	739.952700789548	1492.557210827393	438.335795309870	772.297235293594	940.403470690343	592.120272249848	841.102899848179	758.088515288246	569.618247470947	782.029441000226	640.078814644965	635.267923437608	870.633517659373	597.488081918850	558.793945040896	897.175120347988	516.250665286872	572.360282192379	792.236312489500	727.363683487335	351.180104005835	684.883464580848	631.277233265997	279.539139959717	736.422189545951	540.423284876889	353.218800969084	719.545893930067	473.547264196405	363.598711075833	688.719291375969	406.448610611120	352.684043983890	593.138108296138	301.067045209056	296.023454795636	622.224107631323	187.420693558761	373.131993582500	884.207178972709	427.749207923875	581.829482818951	832.755939221163	313.214847570471	643.733006834525	903.389151136966	228.463426775889	591.824029746456	812.548489734133	40.793842444643	563.544769607852	972.271156416132	119.208751658860	601.980053518312	897.121193767192	41.826581346732	637.303311469830	1098.070576017398	87.032028396248	628.869798047047	478.492145779608	38.113890640402	407.232483574430	555.550168060725	35.066291813907	329.751258176469	638.512379859533	95.057924765287	360.306508613507	767.317321750957	41.093311989608	336.339746958698	811.859029666248	1096.201744085235	143.615761769511	1060.394627175364	1040.945218464935	177.844455407812	567.415098210483	1124.817402853993	711.366669986751	522.144642039756	868.288201242203	722.898837740409	
